<svg xmlns="http://www.w3.org/2000/svg" xmlns:xlink="http://www.w3.org/1999/xlink" width="500" zoomAndPan="magnify" viewBox="0 0 375 374.999991" height="500" preserveAspectRatio="xMidYMid meet" version="1.0"><defs><g/><clipPath id="10e2a6950b"><path d="M 37.472656 0 L 218 0 L 218 267 L 37.472656 267 Z M 37.472656 0 " clip-rule="nonzero"/></clipPath></defs><g fill="#000000" fill-opacity="1"><g transform="translate(39.080518, 329.925391)"><g><path d="M 34.140625 1.015625 C 48.625 1.015625 57.75 -4.65625 59.78125 -17.015625 C 60.78125 -22.890625 57.03125 -26.140625 51.46875 -26.140625 L 51.359375 -26.140625 C 46.09375 -26.140625 43.96875 -23.296875 42.25 -17.9375 C 41.03125 -14.28125 38.59375 -12.96875 34.25 -12.96875 C 28.46875 -12.96875 24.421875 -17.21875 24.421875 -35.15625 C 24.421875 -51.671875 27.25 -57.546875 34.25 -57.546875 C 39.40625 -57.546875 41.84375 -55.515625 42.65625 -50.25 C 43.46875 -44.46875 45.59375 -41.328125 51.15625 -41.328125 L 51.765625 -41.328125 C 57.234375 -41.328125 60.984375 -44.28125 60.484375 -49.953125 C 59.265625 -63.71875 49.84375 -71.21875 34.84375 -71.21875 C 14.890625 -71.21875 4.96875 -59.171875 4.96875 -35.15625 C 4.96875 -11.046875 13.984375 1.015625 34.140625 1.015625 Z M 34.140625 1.015625 "/></g></g></g><g fill="#000000" fill-opacity="1"><g transform="translate(108.472528, 329.925391)"><g><path d="M 47.015625 -56.03125 L 46.40625 -56.03125 C 40.828125 -56.03125 37.796875 -52.984375 37.890625 -47.421875 C 37.984375 -40.21875 38.09375 -33.234375 37.890625 -25.9375 C 37.890625 -17.625 34.65625 -13.46875 29.984375 -13.375 C 25.9375 -13.265625 23.5 -16.515625 23.5 -23 C 23.5 -31.3125 23.609375 -39.203125 23.703125 -47.421875 C 23.703125 -52.984375 20.671875 -56.03125 15.09375 -56.03125 L 14.484375 -56.03125 C 8.921875 -56.03125 5.875 -52.984375 5.875 -47.421875 C 5.984375 -38.09375 6.1875 -29.171875 5.984375 -19.75 C 5.671875 -4.359375 12.359375 1.109375 22.28125 1.109375 C 30.296875 1.109375 36.0625 -2.734375 39.203125 -9.328125 C 39.40625 -7.703125 39.71875 -6.1875 40.125 -4.5625 C 41.03125 -1.421875 43.96875 0 48.625 0 C 53.09375 0 55.625 -3.046875 55.515625 -8.609375 C 55.515625 -14.390625 55.421875 -20.0625 55.421875 -25.9375 C 55.421875 -33.234375 55.515625 -40.21875 55.625 -47.421875 C 55.625 -52.984375 52.578125 -56.03125 47.015625 -56.03125 Z M 47.015625 -56.03125 "/></g></g></g><g fill="#000000" fill-opacity="1"><g transform="translate(175.028108, 329.925391)"><g><path d="M 35.359375 -56.84375 C 29.578125 -56.84375 25.53125 -54.40625 22.6875 -51.46875 L 22.6875 -53.796875 C 22.6875 -55.3125 19.65625 -56.125 14.078125 -56.125 L 13.875 -56.125 C 8.3125 -56.125 5.265625 -53.09375 5.375 -47.515625 C 5.46875 -41.03125 5.578125 -34.75 5.578125 -28.0625 C 5.578125 -14.28125 5.375 -1.421875 5.265625 12.15625 C 5.265625 17.734375 8.3125 20.765625 13.875 20.765625 L 14.078125 20.765625 C 19.65625 20.765625 22.6875 17.734375 22.59375 12.15625 C 22.484375 5.671875 22.1875 -0.703125 21.375 -7.09375 L 21.984375 -8.203125 C 24.515625 -2.640625 29.375 1.109375 35.65625 1.109375 C 47.609375 1.109375 57.234375 -8.921875 57.234375 -28.96875 C 57.234375 -50.25 47.609375 -56.84375 35.359375 -56.84375 Z M 31 -12.5625 C 26.546875 -12.5625 22.796875 -14.59375 22.484375 -21.171875 L 22.390625 -21.078125 C 22.390625 -23.203125 22.390625 -25.328125 22.484375 -27.453125 C 22.59375 -36.375 22.484375 -37.390625 22.390625 -38.59375 C 24.421875 -41.234375 26.75 -42.546875 30.59375 -42.546875 C 37.078125 -42.546875 40.828125 -38.703125 40.828125 -27.96875 C 40.828125 -15.5 36.265625 -12.5625 31 -12.5625 Z M 31 -12.5625 "/></g></g></g><g fill="#000000" fill-opacity="1"><g transform="translate(240.975894, 329.925391)"><g><path d="M 14.390625 -63.125 C 21.890625 -63.125 24.921875 -65.65625 24.921875 -71.734375 C 24.921875 -77.8125 21.890625 -80.34375 14.390625 -80.34375 C 6.890625 -80.34375 3.84375 -77.8125 3.84375 -71.734375 C 3.84375 -65.65625 6.890625 -63.125 14.390625 -63.125 Z M 14.6875 0 C 20.265625 0 23.203125 -3.046875 23.09375 -8.609375 C 23.09375 -14.390625 23 -20.0625 23.09375 -25.9375 C 23.203125 -32.109375 23.203125 -40.328125 23.203125 -47.421875 C 23.203125 -52.984375 20.15625 -56.03125 14.59375 -56.03125 L 14.484375 -56.03125 C 8.921875 -56.03125 5.875 -52.984375 5.875 -47.515625 C 5.984375 -41.140625 5.984375 -32.21875 6.078125 -17.21875 L 6.078125 -8.609375 C 6.078125 -3.046875 9.125 0 14.6875 0 Z M 14.6875 0 "/></g></g></g><g fill="#000000" fill-opacity="1"><g transform="translate(274.811227, 329.925391)"><g><path d="M 47.015625 -73.859375 L 46.40625 -73.859375 C 40.828125 -73.859375 37.796875 -70.8125 37.796875 -65.25 C 37.890625 -59.875 37.890625 -54.609375 37.984375 -49.34375 C 35.25 -53.890625 30.796875 -56.84375 25.234375 -56.84375 C 13.265625 -56.84375 3.640625 -46.8125 3.640625 -26.75 C 3.640625 -5.46875 13.265625 1.109375 25.53125 1.109375 C 32.421875 1.109375 36.984375 -2.328125 39.71875 -5.984375 C 40.015625 -4.96875 40.21875 -3.953125 40.53125 -2.9375 C 41.234375 -0.90625 43.875 0 48.625 0 C 53.1875 0 55.625 -3.046875 55.515625 -8.609375 C 55.421875 -14.390625 55.3125 -19.953125 55.3125 -25.9375 C 55.3125 -39.3125 55.515625 -51.96875 55.625 -65.25 C 55.625 -70.8125 52.578125 -73.859375 47.015625 -73.859375 Z M 30.296875 -13.171875 C 23.8125 -13.171875 20.0625 -17.015625 20.0625 -27.765625 C 20.0625 -40.21875 24.625 -43.15625 29.890625 -43.15625 C 33.53125 -43.15625 36.78125 -41.734375 37.984375 -37.59375 C 37.984375 -33.734375 37.984375 -29.890625 37.890625 -25.9375 C 37.796875 -22.59375 37.6875 -19.453125 37.6875 -16.203125 C 35.859375 -14.1875 33.734375 -13.171875 30.296875 -13.171875 Z M 30.296875 -13.171875 "/></g></g></g><g fill="#000000" fill-opacity="1"><g transform="translate(23.129287, 369.945531)"><g><path d="M 7.734375 -17.109375 C 9.640625 -17.109375 11.097656 -16.628906 12.109375 -15.671875 C 13.128906 -14.722656 13.738281 -13.445312 13.9375 -11.84375 L 10.5 -11.84375 C 10.40625 -12.71875 10.113281 -13.394531 9.625 -13.875 C 9.132812 -14.363281 8.460938 -14.609375 7.609375 -14.609375 C 6.910156 -14.609375 6.34375 -14.4375 5.90625 -14.09375 C 5.46875 -13.757812 5.25 -13.269531 5.25 -12.625 C 5.25 -11.90625 5.507812 -11.34375 6.03125 -10.9375 C 6.5625 -10.53125 7.492188 -10.175781 8.828125 -9.875 C 10.660156 -9.445312 12.007812 -8.800781 12.875 -7.9375 C 13.738281 -7.082031 14.171875 -5.976562 14.171875 -4.625 C 14.171875 -3.09375 13.570312 -1.878906 12.375 -0.984375 C 11.175781 -0.0976562 9.707031 0.34375 7.96875 0.34375 C 5.925781 0.34375 4.296875 -0.101562 3.078125 -1 C 1.867188 -1.90625 1.179688 -3.222656 1.015625 -4.953125 L 4.453125 -4.953125 C 4.628906 -4.066406 5.03125 -3.378906 5.65625 -2.890625 C 6.289062 -2.398438 7.046875 -2.15625 7.921875 -2.15625 C 8.703125 -2.15625 9.351562 -2.347656 9.875 -2.734375 C 10.40625 -3.128906 10.671875 -3.644531 10.671875 -4.28125 C 10.671875 -4.988281 10.414062 -5.5625 9.90625 -6 C 9.394531 -6.4375 8.53125 -6.800781 7.3125 -7.09375 C 5.4375 -7.550781 4.035156 -8.15625 3.109375 -8.90625 C 2.179688 -9.664062 1.71875 -10.765625 1.71875 -12.203125 C 1.71875 -13.691406 2.300781 -14.878906 3.46875 -15.765625 C 4.644531 -16.660156 6.066406 -17.109375 7.734375 -17.109375 Z M 7.734375 -17.109375 "/></g></g></g><g fill="#000000" fill-opacity="1"><g transform="translate(50.120108, 369.945531)"><g><path d="M 20.234375 -12.9375 L 16.125 0 L 12.328125 0 L 10.140625 -9.84375 L 7.921875 0 L 4.109375 0 L 0 -12.9375 L 3.75 -12.9375 L 6.03125 -2.796875 L 8.140625 -12.890625 L 12.1875 -12.890625 L 14.375 -2.8125 L 16.625 -12.9375 Z M 20.234375 -12.9375 "/></g></g></g><g fill="#000000" fill-opacity="1"><g transform="translate(82.533391, 369.945531)"><g><path d="M 1.859375 -17.25 C 2.203125 -17.582031 2.648438 -17.75 3.203125 -17.75 C 3.753906 -17.75 4.203125 -17.582031 4.546875 -17.25 C 4.890625 -16.914062 5.0625 -16.488281 5.0625 -15.96875 C 5.0625 -15.4375 4.890625 -15.007812 4.546875 -14.6875 C 4.203125 -14.363281 3.753906 -14.203125 3.203125 -14.203125 C 2.648438 -14.203125 2.203125 -14.363281 1.859375 -14.6875 C 1.523438 -15.007812 1.359375 -15.4375 1.359375 -15.96875 C 1.359375 -16.488281 1.523438 -16.914062 1.859375 -17.25 Z M 4.890625 0 L 1.53125 0 L 1.53125 -12.9375 L 4.890625 -12.9375 Z M 4.890625 0 "/></g></g></g><g fill="#000000" fill-opacity="1"><g transform="translate(101.208113, 369.945531)"><g><path d="M 9.21875 -13.28125 C 11 -13.28125 12.398438 -12.671875 13.421875 -11.453125 C 14.453125 -10.234375 14.96875 -8.648438 14.96875 -6.703125 C 14.96875 -4.472656 14.375 -2.738281 13.1875 -1.5 C 12.007812 -0.269531 10.539062 0.34375 8.78125 0.34375 C 7.445312 0.34375 6.429688 0.0976562 5.734375 -0.390625 L 4.890625 -1.71875 L 4.890625 4.765625 L 1.53125 4.765625 L 1.53125 -12.9375 L 4.890625 -12.9375 L 4.890625 -10.96875 L 5.859375 -12.375 C 6.609375 -12.976562 7.726562 -13.28125 9.21875 -13.28125 Z M 8.125 -2.015625 C 9.125 -2.015625 9.9375 -2.398438 10.5625 -3.171875 C 11.1875 -3.941406 11.5 -5.046875 11.5 -6.484375 C 11.5 -7.816406 11.203125 -8.890625 10.609375 -9.703125 C 10.015625 -10.515625 9.222656 -10.921875 8.234375 -10.921875 C 7.234375 -10.921875 6.425781 -10.570312 5.8125 -9.875 C 5.195312 -9.1875 4.890625 -8.097656 4.890625 -6.609375 L 4.890625 -6 C 4.890625 -4.644531 5.203125 -3.640625 5.828125 -2.984375 C 6.460938 -2.335938 7.226562 -2.015625 8.125 -2.015625 Z M 8.125 -2.015625 "/></g></g></g><g fill="#000000" fill-opacity="1"><g transform="translate(129.049989, 369.945531)"><g><path d="M 13.28125 -6.734375 C 13.28125 -6.265625 13.257812 -5.882812 13.21875 -5.59375 L 4.03125 -5.59375 C 4.226562 -3.207031 5.226562 -2.015625 7.03125 -2.015625 C 7.757812 -2.015625 8.363281 -2.207031 8.84375 -2.59375 C 9.320312 -2.988281 9.613281 -3.523438 9.71875 -4.203125 L 13.078125 -4.203125 C 12.753906 -2.734375 12.046875 -1.609375 10.953125 -0.828125 C 9.859375 -0.046875 8.523438 0.34375 6.953125 0.34375 C 5.085938 0.34375 3.570312 -0.234375 2.40625 -1.390625 C 1.238281 -2.554688 0.65625 -4.234375 0.65625 -6.421875 C 0.65625 -8.429688 1.257812 -10.078125 2.46875 -11.359375 C 3.675781 -12.640625 5.257812 -13.28125 7.21875 -13.28125 C 9.113281 -13.28125 10.597656 -12.65625 11.671875 -11.40625 C 12.742188 -10.15625 13.28125 -8.597656 13.28125 -6.734375 Z M 7.078125 -10.921875 C 5.410156 -10.921875 4.429688 -9.875 4.140625 -7.78125 L 9.828125 -7.78125 C 9.597656 -9.875 8.679688 -10.921875 7.078125 -10.921875 Z M 7.078125 -10.921875 "/></g></g></g><g fill="#000000" fill-opacity="1"><g transform="translate(155.31131, 369.945531)"><g/></g></g><g fill="#000000" fill-opacity="1"><g transform="translate(172.235261, 369.945531)"><g><path d="M 5.28125 -14.59375 C 5.25 -14.363281 5.234375 -13.988281 5.234375 -13.46875 L 5.234375 -12.84375 L 7.875 -12.84375 L 7.875 -10.625 L 5.234375 -10.625 L 5.234375 0 L 1.875 0 L 1.875 -10.625 L 0.484375 -10.625 L 0.484375 -12.84375 L 1.875 -12.84375 L 1.875 -13.375 C 1.875 -14.070312 1.890625 -14.566406 1.921875 -14.859375 C 2.128906 -17.171875 3.691406 -18.328125 6.609375 -18.328125 C 7.097656 -18.328125 7.59375 -18.269531 8.09375 -18.15625 L 8.09375 -15.828125 C 7.300781 -15.972656 6.648438 -15.9375 6.140625 -15.71875 C 5.628906 -15.5 5.34375 -15.125 5.28125 -14.59375 Z M 5.28125 -14.59375 "/></g></g></g><g fill="#000000" fill-opacity="1"><g transform="translate(192.66072, 369.945531)"><g><path d="M 2.421875 -11.390625 C 3.609375 -12.648438 5.253906 -13.28125 7.359375 -13.28125 C 9.472656 -13.28125 11.117188 -12.648438 12.296875 -11.390625 C 13.484375 -10.128906 14.078125 -8.488281 14.078125 -6.46875 C 14.078125 -4.457031 13.484375 -2.816406 12.296875 -1.546875 C 11.117188 -0.285156 9.472656 0.34375 7.359375 0.34375 C 5.253906 0.34375 3.609375 -0.285156 2.421875 -1.546875 C 1.242188 -2.816406 0.65625 -4.457031 0.65625 -6.46875 C 0.65625 -8.488281 1.242188 -10.128906 2.421875 -11.390625 Z M 5 -3.1875 C 5.570312 -2.40625 6.359375 -2.015625 7.359375 -2.015625 C 8.367188 -2.015625 9.160156 -2.40625 9.734375 -3.1875 C 10.304688 -3.976562 10.59375 -5.070312 10.59375 -6.46875 C 10.59375 -7.863281 10.304688 -8.953125 9.734375 -9.734375 C 9.160156 -10.523438 8.367188 -10.921875 7.359375 -10.921875 C 6.359375 -10.921875 5.570312 -10.523438 5 -9.734375 C 4.425781 -8.953125 4.140625 -7.863281 4.140625 -6.46875 C 4.140625 -5.070312 4.425781 -3.976562 5 -3.1875 Z M 5 -3.1875 "/></g></g></g><g fill="#000000" fill-opacity="1"><g transform="translate(219.602898, 369.945531)"><g><path d="M 8.125 -13.25 C 8.488281 -13.25 8.800781 -13.21875 9.0625 -13.15625 L 9.0625 -10.453125 C 7.632812 -10.546875 6.582031 -10.238281 5.90625 -9.53125 C 5.226562 -8.832031 4.890625 -7.632812 4.890625 -5.9375 L 4.890625 0 L 1.53125 0 L 1.53125 -12.9375 L 4.890625 -12.9375 L 4.890625 -10.578125 L 5.90625 -12.375 C 6.539062 -12.957031 7.28125 -13.25 8.125 -13.25 Z M 8.125 -13.25 "/></g></g></g><g fill="#000000" fill-opacity="1"><g transform="translate(241.049648, 369.945531)"><g/></g></g><g fill="#000000" fill-opacity="1"><g transform="translate(257.973599, 369.945531)"><g><path d="M 14.265625 -2.796875 L 14.265625 0 L 2.15625 0 L 2.15625 -16.78125 L 5.515625 -16.78125 L 5.515625 -2.796875 Z M 14.265625 -2.796875 "/></g></g></g><g fill="#000000" fill-opacity="1"><g transform="translate(284.867137, 369.945531)"><g><path d="M 2.421875 -11.390625 C 3.609375 -12.648438 5.253906 -13.28125 7.359375 -13.28125 C 9.472656 -13.28125 11.117188 -12.648438 12.296875 -11.390625 C 13.484375 -10.128906 14.078125 -8.488281 14.078125 -6.46875 C 14.078125 -4.457031 13.484375 -2.816406 12.296875 -1.546875 C 11.117188 -0.285156 9.472656 0.34375 7.359375 0.34375 C 5.253906 0.34375 3.609375 -0.285156 2.421875 -1.546875 C 1.242188 -2.816406 0.65625 -4.457031 0.65625 -6.46875 C 0.65625 -8.488281 1.242188 -10.128906 2.421875 -11.390625 Z M 5 -3.1875 C 5.570312 -2.40625 6.359375 -2.015625 7.359375 -2.015625 C 8.367188 -2.015625 9.160156 -2.40625 9.734375 -3.1875 C 10.304688 -3.976562 10.59375 -5.070312 10.59375 -6.46875 C 10.59375 -7.863281 10.304688 -8.953125 9.734375 -9.734375 C 9.160156 -10.523438 8.367188 -10.921875 7.359375 -10.921875 C 6.359375 -10.921875 5.570312 -10.523438 5 -9.734375 C 4.425781 -8.953125 4.140625 -7.863281 4.140625 -6.46875 C 4.140625 -5.070312 4.425781 -3.976562 5 -3.1875 Z M 5 -3.1875 "/></g></g></g><g fill="#000000" fill-opacity="1"><g transform="translate(311.809303, 369.945531)"><g><path d="M 13.78125 -12.9375 L 8.78125 0 L 5.03125 0 L 0 -12.9375 L 3.71875 -12.9375 L 6.984375 -2.53125 L 10.15625 -12.9375 Z M 13.78125 -12.9375 "/></g></g></g><g fill="#000000" fill-opacity="1"><g transform="translate(337.77883, 369.945531)"><g><path d="M 13.28125 -6.734375 C 13.28125 -6.265625 13.257812 -5.882812 13.21875 -5.59375 L 4.03125 -5.59375 C 4.226562 -3.207031 5.226562 -2.015625 7.03125 -2.015625 C 7.757812 -2.015625 8.363281 -2.207031 8.84375 -2.59375 C 9.320312 -2.988281 9.613281 -3.523438 9.71875 -4.203125 L 13.078125 -4.203125 C 12.753906 -2.734375 12.046875 -1.609375 10.953125 -0.828125 C 9.859375 -0.046875 8.523438 0.34375 6.953125 0.34375 C 5.085938 0.34375 3.570312 -0.234375 2.40625 -1.390625 C 1.238281 -2.554688 0.65625 -4.234375 0.65625 -6.421875 C 0.65625 -8.429688 1.257812 -10.078125 2.46875 -11.359375 C 3.675781 -12.640625 5.257812 -13.28125 7.21875 -13.28125 C 9.113281 -13.28125 10.597656 -12.65625 11.671875 -11.40625 C 12.742188 -10.15625 13.28125 -8.597656 13.28125 -6.734375 Z M 7.078125 -10.921875 C 5.410156 -10.921875 4.429688 -9.875 4.140625 -7.78125 L 9.828125 -7.78125 C 9.597656 -9.875 8.679688 -10.921875 7.078125 -10.921875 Z M 7.078125 -10.921875 "/></g></g></g><g clip-path="url(#10e2a6950b)"><path fill="#000000" d="M 154.199219 143.097656 C 143.234375 89.84375 158.242188 47.851562 173.78125 21.050781 C 172.027344 19.460938 170.226562 17.949219 168.378906 16.515625 C 154.472656 5.757812 138.675781 0.308594 121.4375 0.308594 C 98.359375 0.308594 77.132812 9.546875 61.667969 26.324219 C 46.378906 42.90625 37.964844 65.554688 37.964844 90.109375 C 37.964844 115.382812 47.378906 138.515625 67.601562 162.902344 C 85.683594 184.730469 111.679688 206.882812 141.757812 232.539062 C 152.039062 241.300781 163.691406 251.226562 175.773438 261.792969 C 176.566406 262.488281 177.417969 263.105469 178.324219 263.648438 C 179.226562 264.191406 180.175781 264.648438 181.160156 265.019531 C 182.148438 265.390625 183.164062 265.671875 184.199219 265.859375 C 185.238281 266.050781 186.285156 266.144531 187.339844 266.144531 C 188.394531 266.144531 189.441406 266.050781 190.480469 265.859375 C 191.519531 265.671875 192.53125 265.390625 193.519531 265.019531 C 194.507812 264.648438 195.453125 264.191406 196.359375 263.648438 C 197.261719 263.105469 198.113281 262.488281 198.90625 261.792969 C 205.246094 256.242188 211.472656 250.90625 217.433594 245.761719 C 192.996094 228.558594 165.441406 197.644531 154.199219 143.097656 Z M 154.199219 143.097656 " fill-opacity="1" fill-rule="nonzero"/></g><path fill="#000000" d="M 313.0625 26.332031 C 297.597656 9.554688 276.371094 0.316406 253.292969 0.316406 C 249.484375 0.296875 245.699219 0.5625 241.933594 1.121094 C 238.164062 1.679688 234.464844 2.523438 230.824219 3.644531 C 227.1875 4.769531 223.65625 6.164062 220.230469 7.828125 C 216.808594 9.496094 213.527344 11.410156 210.398438 13.574219 C 210.398438 13.574219 166.480469 56.898438 177.84375 133.453125 C 184.226562 176.4375 208.253906 209.480469 235.9375 229.984375 C 264.769531 205.414062 289.644531 184.007812 307.136719 162.910156 C 327.347656 138.515625 336.765625 115.382812 336.765625 90.113281 C 336.765625 65.554688 328.347656 42.90625 313.0625 26.332031 Z M 313.0625 26.332031 " fill-opacity="1" fill-rule="nonzero"/></svg>