<svg xmlns="http://www.w3.org/2000/svg" xmlns:xlink="http://www.w3.org/1999/xlink" width="500" zoomAndPan="magnify" viewBox="0 0 375 374.999991" height="500" preserveAspectRatio="xMidYMid meet" version="1.0"><defs><clipPath id="a2dd43cd43"><path d="M 0 20.523438 L 225 20.523438 L 225 354 L 0 354 Z M 0 20.523438 " clip-rule="nonzero"/></clipPath><clipPath id="f133d0f2d2"><path d="M 173 20.523438 L 375 20.523438 L 375 308 L 173 308 Z M 173 20.523438 " clip-rule="nonzero"/></clipPath></defs><g clip-path="url(#a2dd43cd43)"><path fill="#ffffff" d="M 145.886719 199.367188 C 132.179688 132.808594 150.9375 80.328125 170.355469 46.835938 C 168.164062 44.84375 165.914062 42.953125 163.605469 41.164062 C 146.226562 27.71875 126.480469 20.910156 104.933594 20.910156 C 76.09375 20.910156 49.566406 32.457031 30.238281 53.425781 C 11.132812 74.144531 0.613281 102.453125 0.613281 133.140625 C 0.613281 164.726562 12.382812 193.636719 37.652344 224.121094 C 60.253906 251.398438 92.742188 279.082031 130.332031 311.148438 C 143.179688 322.097656 157.746094 334.503906 172.847656 347.710938 C 173.839844 348.578125 174.902344 349.351562 176.03125 350.03125 C 177.164062 350.707031 178.347656 351.277344 179.582031 351.742188 C 180.816406 352.207031 182.082031 352.558594 183.378906 352.792969 C 184.675781 353.03125 185.984375 353.148438 187.304688 353.148438 C 188.621094 353.148438 189.929688 353.03125 191.226562 352.792969 C 192.523438 352.558594 193.789062 352.207031 195.023438 351.742188 C 196.257812 351.277344 197.441406 350.707031 198.574219 350.03125 C 199.703125 349.351562 200.765625 348.578125 201.757812 347.710938 C 209.683594 340.769531 217.460938 334.105469 224.910156 327.675781 C 194.367188 306.171875 159.933594 267.535156 145.886719 199.367188 Z M 145.886719 199.367188 " fill-opacity="1" fill-rule="nonzero"/></g><g clip-path="url(#f133d0f2d2)"><path fill="#ffffff" d="M 344.429688 53.433594 C 325.101562 32.464844 298.570312 20.917969 269.730469 20.917969 C 264.972656 20.890625 260.238281 21.226562 255.53125 21.925781 C 250.824219 22.625 246.195312 23.675781 241.648438 25.082031 C 237.101562 26.484375 232.691406 28.230469 228.410156 30.308594 C 224.128906 32.390625 220.03125 34.78125 216.121094 37.488281 C 216.121094 37.488281 161.234375 91.636719 175.433594 187.3125 C 183.410156 241.03125 213.441406 282.332031 248.039062 307.957031 C 284.074219 277.246094 315.160156 250.496094 337.023438 224.128906 C 362.285156 193.636719 374.050781 164.726562 374.050781 133.148438 C 374.050781 102.453125 363.535156 74.144531 344.429688 53.433594 Z M 344.429688 53.433594 " fill-opacity="1" fill-rule="nonzero"/></g></svg>