<svg xmlns="http://www.w3.org/2000/svg" xmlns:xlink="http://www.w3.org/1999/xlink" width="500" zoomAndPan="magnify" viewBox="0 0 375 374.999991" height="500" preserveAspectRatio="xMidYMid meet" version="1.0"><defs><g/></defs><g fill="#000000" fill-opacity="1"><g transform="translate(176.696338, 202.047878)"><g><path d="M 22.53125 0.671875 C 32.078125 0.671875 38.09375 -3.078125 39.4375 -11.234375 C 40.109375 -15.109375 37.640625 -17.25 33.953125 -17.25 L 33.890625 -17.25 C 30.40625 -17.25 29.015625 -15.375 27.875 -11.828125 C 27.078125 -9.421875 25.46875 -8.5625 22.59375 -8.5625 C 18.78125 -8.5625 16.109375 -11.359375 16.109375 -23.1875 C 16.109375 -34.09375 17.984375 -37.96875 22.59375 -37.96875 C 26 -37.96875 27.609375 -36.625 28.140625 -33.15625 C 28.671875 -29.34375 30.078125 -27.265625 33.75 -27.265625 L 34.15625 -27.265625 C 37.765625 -27.265625 40.234375 -29.203125 39.90625 -32.953125 C 39.109375 -42.046875 32.890625 -46.984375 23 -46.984375 C 9.828125 -46.984375 3.28125 -39.03125 3.28125 -23.1875 C 3.28125 -7.28125 9.21875 0.671875 22.53125 0.671875 Z M 22.53125 0.671875 "/></g></g></g><g fill="#000000" fill-opacity="1"><g transform="translate(222.478083, 202.047878)"><g><path d="M 31.015625 -36.96875 L 30.609375 -36.96875 C 26.9375 -36.96875 24.9375 -34.953125 25 -31.28125 C 25.0625 -26.53125 25.140625 -21.921875 25 -17.109375 C 25 -11.625 22.859375 -8.890625 19.78125 -8.828125 C 17.109375 -8.75 15.5 -10.890625 15.5 -15.171875 C 15.5 -20.65625 15.578125 -25.875 15.640625 -31.28125 C 15.640625 -34.953125 13.640625 -36.96875 9.953125 -36.96875 L 9.5625 -36.96875 C 5.875 -36.96875 3.875 -34.953125 3.875 -31.28125 C 3.9375 -25.140625 4.078125 -19.25 3.9375 -13.03125 C 3.75 -2.875 8.15625 0.734375 14.703125 0.734375 C 19.984375 0.734375 23.796875 -1.8125 25.875 -6.15625 C 26 -5.078125 26.203125 -4.078125 26.46875 -3.015625 C 27.078125 -0.9375 29.015625 0 32.078125 0 C 35.03125 0 36.703125 -2 36.625 -5.6875 C 36.625 -9.484375 36.5625 -13.234375 36.5625 -17.109375 C 36.5625 -21.921875 36.625 -26.53125 36.703125 -31.28125 C 36.703125 -34.953125 34.6875 -36.96875 31.015625 -36.96875 Z M 31.015625 -36.96875 "/></g></g></g><g fill="#000000" fill-opacity="1"><g transform="translate(266.388479, 202.047878)"><g><path d="M 23.328125 -37.5 C 19.515625 -37.5 16.84375 -35.890625 14.96875 -33.953125 L 14.96875 -35.5 C 14.96875 -36.5 12.96875 -37.03125 9.296875 -37.03125 L 9.15625 -37.03125 C 5.484375 -37.03125 3.46875 -35.03125 3.546875 -31.34375 C 3.609375 -27.078125 3.671875 -22.921875 3.671875 -18.515625 C 3.671875 -9.421875 3.546875 -0.9375 3.46875 8.015625 C 3.46875 11.703125 5.484375 13.703125 9.15625 13.703125 L 9.296875 13.703125 C 12.96875 13.703125 14.96875 11.703125 14.90625 8.015625 C 14.84375 3.75 14.640625 -0.46875 14.109375 -4.671875 L 14.5 -5.421875 C 16.171875 -1.734375 19.390625 0.734375 23.53125 0.734375 C 31.421875 0.734375 37.765625 -5.875 37.765625 -19.125 C 37.765625 -33.15625 31.421875 -37.5 23.328125 -37.5 Z M 20.453125 -8.28125 C 17.515625 -8.28125 15.046875 -9.625 14.84375 -13.96875 L 14.765625 -13.90625 C 14.765625 -15.3125 14.765625 -16.703125 14.84375 -18.109375 C 14.90625 -24 14.84375 -24.671875 14.765625 -25.46875 C 16.109375 -27.203125 17.640625 -28.078125 20.1875 -28.078125 C 24.46875 -28.078125 26.9375 -25.53125 26.9375 -18.453125 C 26.9375 -10.234375 23.9375 -8.28125 20.453125 -8.28125 Z M 20.453125 -8.28125 "/></g></g></g><g fill="#000000" fill-opacity="1"><g transform="translate(309.897879, 202.047878)"><g><path d="M 9.484375 -41.640625 C 14.4375 -41.640625 16.4375 -43.3125 16.4375 -47.328125 C 16.4375 -51.34375 14.4375 -53 9.484375 -53 C 4.546875 -53 2.546875 -51.34375 2.546875 -47.328125 C 2.546875 -43.3125 4.546875 -41.640625 9.484375 -41.640625 Z M 9.6875 0 C 13.375 0 15.3125 -2 15.234375 -5.6875 C 15.234375 -9.484375 15.171875 -13.234375 15.234375 -17.109375 C 15.3125 -21.1875 15.3125 -26.609375 15.3125 -31.28125 C 15.3125 -34.953125 13.296875 -36.96875 9.625 -36.96875 L 9.5625 -36.96875 C 5.875 -36.96875 3.875 -34.953125 3.875 -31.34375 C 3.9375 -27.140625 3.9375 -21.25 4.015625 -11.359375 L 4.015625 -5.6875 C 4.015625 -2 6.015625 0 9.6875 0 Z M 9.6875 0 "/></g></g></g><g fill="#000000" fill-opacity="1"><g transform="translate(332.22092, 202.047878)"><g><path d="M 31.015625 -48.734375 L 30.609375 -48.734375 C 26.9375 -48.734375 24.9375 -46.71875 24.9375 -43.046875 C 25 -39.5 25 -36.03125 25.0625 -32.546875 C 23.265625 -35.5625 20.328125 -37.5 16.640625 -37.5 C 8.75 -37.5 2.40625 -30.875 2.40625 -17.640625 C 2.40625 -3.609375 8.75 0.734375 16.84375 0.734375 C 21.390625 0.734375 24.390625 -1.53125 26.203125 -3.9375 C 26.40625 -3.28125 26.53125 -2.609375 26.734375 -1.9375 C 27.203125 -0.609375 28.9375 0 32.078125 0 C 35.09375 0 36.703125 -2 36.625 -5.6875 C 36.5625 -9.484375 36.5 -13.171875 36.5 -17.109375 C 36.5 -25.9375 36.625 -34.296875 36.703125 -43.046875 C 36.703125 -46.71875 34.6875 -48.734375 31.015625 -48.734375 Z M 19.984375 -8.6875 C 15.703125 -8.6875 13.234375 -11.234375 13.234375 -18.3125 C 13.234375 -26.53125 16.25 -28.46875 19.71875 -28.46875 C 22.125 -28.46875 24.265625 -27.546875 25.0625 -24.796875 C 25.0625 -22.265625 25.0625 -19.71875 25 -17.109375 C 24.9375 -14.90625 24.859375 -12.828125 24.859375 -10.6875 C 23.65625 -9.359375 22.265625 -8.6875 19.984375 -8.6875 Z M 19.984375 -8.6875 "/></g></g></g><path fill="#000000" d="M 67.785156 193.015625 C 61.414062 162.085938 70.132812 137.703125 79.15625 122.140625 C 78.136719 121.214844 77.089844 120.335938 76.019531 119.503906 C 67.941406 113.257812 58.769531 110.09375 48.757812 110.09375 C 35.355469 110.09375 23.03125 115.460938 14.050781 125.203125 C 5.171875 134.832031 0.285156 147.984375 0.285156 162.242188 C 0.285156 176.917969 5.753906 190.351562 17.496094 204.515625 C 27.996094 217.1875 43.09375 230.050781 60.558594 244.949219 C 66.527344 250.039062 73.296875 255.804688 80.3125 261.941406 C 80.773438 262.34375 81.265625 262.703125 81.792969 263.019531 C 82.316406 263.332031 82.867188 263.597656 83.441406 263.8125 C 84.015625 264.03125 84.601562 264.191406 85.207031 264.300781 C 85.808594 264.410156 86.417969 264.464844 87.027344 264.464844 C 87.640625 264.464844 88.25 264.410156 88.851562 264.300781 C 89.457031 264.191406 90.042969 264.03125 90.617188 263.8125 C 91.191406 263.597656 91.738281 263.332031 92.265625 263.019531 C 92.792969 262.703125 93.285156 262.34375 93.746094 261.941406 C 97.425781 258.714844 101.042969 255.617188 104.503906 252.632812 C 90.3125 242.640625 74.3125 224.6875 67.785156 193.015625 Z M 67.785156 193.015625 " fill-opacity="1" fill-rule="nonzero"/><path fill="#000000" d="M 160.035156 125.207031 C 151.054688 115.464844 138.730469 110.097656 125.328125 110.097656 C 120.878906 110.074219 116.53125 110.71875 112.28125 112.03125 C 108.03125 113.347656 104.078125 115.269531 100.417969 117.796875 C 100.417969 117.796875 74.914062 142.957031 81.511719 187.410156 C 85.21875 212.371094 99.171875 231.5625 115.25 243.46875 C 131.992188 229.199219 146.4375 216.769531 156.59375 204.519531 C 168.332031 190.351562 173.800781 176.917969 173.800781 162.246094 C 173.800781 147.984375 168.914062 134.832031 160.035156 125.207031 Z M 160.035156 125.207031 " fill-opacity="1" fill-rule="nonzero"/></svg>